<svg xmlns="http://www.w3.org/2000/svg" viewBox="0 0 379.78 358.13"><defs><style>.cls-1{fill:#26cbdf;}</style></defs><g id="Layer_2" data-name="Layer 2"><g id="Layer_1-2" data-name="Layer 1"><path class="cls-1" d="M230.43,132.44c5.32,5.58,10.74,11.44,16.39,17.06,1,1,3,1.28,4.51,1.57,6.2,1.13,10,5.71,9.49,11.47a10.57,10.57,0,0,1-10.4,9.59c-5.74,0-9.82-4.2-10.58-10.46a9.49,9.49,0,0,0-2.28-5.17c-4.51-4.66-9.23-9.16-14.12-13.42a4.84,4.84,0,0,0-4.54-.31c-21.48,14-42.6,12.92-64.33-1.51-5.73,5.52-11.74,11.17-17.53,17.05-.84.86-.68,2.79-.83,4.24a10.42,10.42,0,0,1-20.63,1.07c-1-5.26,1.56-10.9,6.81-11.7,6.9-1,10.49-5.81,14.68-10.18,3-3.11,5.86-6.31,8.74-9.41-14.72-22.19-14.63-44,.48-66.12-5.26-5.59-10.5-11.34-16-16.85-1-1-3-1.12-4.54-1.28-6.28-.61-10.46-4.78-10.46-10.61a10.83,10.83,0,0,1,10-10.54c5.4-.31,9.75,3.67,10.92,9.57a10.53,10.53,0,0,0,2.48,5.19q7,7.1,14.62,13.62a5,5,0,0,0,4.57.4c20.76-12.87,41.2-12.3,61.47,1a9.48,9.48,0,0,0,1.53.55c5.69-5.39,11.66-10.91,17.41-16.65,1-1,1.31-3,1.6-4.53,1-5.67,5.91-9.71,11.26-9.17a10.78,10.78,0,0,1,9.66,10.38c.06,5.73-4,9.76-9.79,10.78a15.83,15.83,0,0,0-7.58,3.61,128.34,128.34,0,0,0-11.58,12.41c-.87,1-1.36,3.53-.73,4.52,13.48,20.9,13.08,41.62-.34,62.33A7.17,7.17,0,0,0,230.43,132.44ZM173,95.07l18.55-31.54C178.74,63.23,169,66.91,161,75.84c3.46,5.76,6.77,11.29,10.11,16.8A30.17,30.17,0,0,0,173,95.07Zm-16.93,19.76c2.67,8.54,14.48,18.75,22.23,19.43a3.15,3.15,0,0,0,2.52-.88c3.56-5.92,7-11.93,10.77-18.55Zm61.31,5.33c6.26-9.41,8-18.84,5.51-29a3.73,3.73,0,0,0-2.52-2.41c-6.69-.2-13.4-.11-21.17-.11ZM184.8,135.42c11.2.68,20-2.56,27.45-9.37.82-.75,1.77-2.56,1.42-3.22-3.3-6.19-6.86-12.23-10.75-19C196.64,114.77,191,124.67,184.8,135.42ZM184.62,84h35.83c-5.16-9.74-12.34-15.89-22.21-18.81a3.63,3.63,0,0,0-3.17,1.18C191.58,72,188.31,77.68,184.62,84Zm-26.56-4.53c-5.69,9.19-7.37,17.91-5.32,27.23.3,1.36,2,3.37,3.11,3.43,6.54.33,13.1.16,20.78.16Z"/><path class="cls-1" d="M242.78,358.13c-5.32-.88-10.52-1.93-15.77-2.53-3.1-.36-3.78-1.87-3.72-4.63.13-6.49.06-13,0-19.47,0-1.58-.18-3.16-.29-4.9-18.06,8.65-31.81,2.45-35.59-15.91a49.58,49.58,0,0,1-1-14.36c2-21.76,17.83-33.76,39.48-30.34,4.92.78,9.87,1.51,14.71,2.64,1.16.27,2.8,2,2.8,3.13.08,28.44,0,56.89-.11,85.33C243.33,357.24,243.19,357.38,242.78,358.13Zm-19.53-66c-.36-.09.36-1.92,0-2,0-1.83.31-1.48,0-3.26-.34-2.09-.86-5.69-1.78-5.85a14.32,14.32,0,0,0-8.45,1,8.58,8.58,0,0,0-4,5.91,138.62,138.62,0,0,0-.45,21.75c.16,2.26,3,5.48,5.2,6.06,4.42,0,6.69-2.52,7.42-4.63C223.33,305.12,223.25,299.13,223.25,292.13Z"/><path class="cls-1" d="M20.69,298.47c0,8.74-.16,17.72.07,26.69.09,3.77-.78,5.47-5,5.18-5.12-.36-10.29-.08-15.81-.08V244c13.89.35,27.86-2.11,41.5,2,11.15,3.35,17,11.78,17.2,23.58.2,12.1-5.34,21.15-16.37,24.68C35.62,296.38,28.43,297,20.69,298.47Zm0-15c2.3,0,3.92.1,5.53,0,7.1-.5,11-5.65,10.41-13.55-.64-8.17-5.45-12.95-12.58-12.1-1.22.15-3.17,1.93-3.21,3C20.55,268.06,20.69,275.34,20.69,283.44Z"/><path class="cls-1" d="M292.35,266.7h19.74c2.62,19.79-3.84,40.37,6.87,59.57-4.49,1.44-8.95,3.07-13.53,4.19-1.12.27-3.13-.76-3.91-1.81-1.64-2.23-2.74-4.86-4.36-7.89-6.08,7.8-14.13,10.87-23.7,10.06-8.41-.71-14.78-5.58-15.12-13.88-.68-16.58-.2-33.22-.2-50.16h19.65c0,2.88,0,5.65,0,8.43,0,11.33-.07,22.67.33,34,.08,2.21,2,5.95,3.48,6.14,2.2.29,5.9-1.3,6.89-3.18a32.18,32.18,0,0,0,3.68-12.64c.54-9,.17-18,.18-27Z"/><path class="cls-1" d="M347.23,308.05c3.08,9.67,5.8,10.1,28.19,4.78,1.21,4,2.43,8.05,3.64,12-10.38,8.06-33,8.76-43.28,1.48a21.31,21.31,0,0,1-9.33-14.83c-.85-6.86-1.33-14-.24-20.8,3-18.58,21.11-29.61,39.39-24.72,6.78,1.81,11.63,5.63,13.44,12.67,2,7.65,0,14.19-5.79,19.51-6.12,5.65-13.76,7.92-21.74,9.29C350.22,307.67,348.91,307.81,347.23,308.05Zm-1.76-13.64c6.29.36,10.43-1.39,12.67-4.86,2.36-3.65,2-7.59-.77-9.37s-6.92-.53-8.69,3.36C347.15,286.89,346.54,290.64,345.47,294.41Z"/><path class="cls-1" d="M108.07,281.83l-9.77-.44V267.55c.41-.24.69-.53,1-.55,9-.75,8.9-.77,10.86-10a5.61,5.61,0,0,1,2.63-3.52,30.82,30.82,0,0,1,6.75-1.73c2.59-.53,5.2-1,8.45-1.55v16.59h15c-.79,5.11-1.49,9.63-2.26,14.63H128.25c0,10.39-.2,20.31.23,30.19.06,1.38,3.06,3.43,4.93,3.74,2.85.47,5.9-.32,9.72-.64,1,4,2.11,8.18,3.32,12.85-10.4,3.72-20.41,4.82-30.45.7-6.27-2.58-7.87-8.2-7.91-14.37C108,303.37,108.07,292.89,108.07,281.83Z"/><path class="cls-1" d="M160.4,50.76c-4.53-4.24-8.58-7.35-8.43-14.54.31-14.1-12.74-25.56-26.94-25.13S99.1,23.76,99.37,37.85c.27,14.53,12.29,26.7,26.8,25.8,7.11-.44,10,3.58,13.57,7.92-11.91,7.45-32,2.72-42.57-9.77-11.82-14-11.78-35.3.1-48.72,12.56-14.19,33.54-17.25,49-7.14C161.07,15.61,167.58,35.54,160.4,50.76Z"/><path class="cls-1" d="M139.1,127.12c-3.77,4.42-6.94,8.55-14,8.36-14.15-.4-25.86,12.22-25.68,26.43A26.55,26.55,0,0,0,126.18,188c14.25-.11,26.66-12.06,25.83-26.22-.41-7.23,3.68-10.27,8-14.1,7.43,13.76,2,33.79-11.56,43.9A37.57,37.57,0,0,1,99.16,188C86,174.93,84.7,153.65,96.05,138.66,105.93,125.61,126.25,120.06,139.1,127.12Z"/><path class="cls-1" d="M236.22,71.78c3.86-5,7.24-8.53,14.39-8.14,14.19.76,25.92-11.46,26.23-25.89.3-14-11.61-26.28-25.76-26.65s-27.22,11.17-26.89,25.2c.16,7.17-3.82,10.32-8.22,14.13-7.26-12.16-1.92-31.85,11.27-42.51C241.07-3.25,262-2.5,275.52,9.66a37.59,37.59,0,0,1,6.12,48.68C271.73,73.17,251.89,79.25,236.22,71.78Z"/><path class="cls-1" d="M216.21,147.71c4.32,3.85,8.35,6.95,8,14.15-.75,14.21,11.62,26,26,26.09a26.6,26.6,0,0,0,26.72-26.16c.25-14-11.69-26.28-25.83-26.51-7-.11-9.53-1.67-13.73-8.37,13.42-6.88,33.95-1,43.48,12.57,10.92,15.49,9,36.58-4.48,49.29a37.63,37.63,0,0,1-49.4,2.16C213.87,180.56,208.82,160.62,216.21,147.71Z"/><path class="cls-1" d="M94.61,315.53c.26,2,.42,3.27.62,4.57,1.32,8.54.85,9.6-7.71,10.19-4.3.29-9.19-.13-12.94-2-2.92-1.46-6.26-5.58-6.36-8.61-.6-17.57-.29-35.17-.29-53H87.71v9.89c0,10.64.12,21.28,0,31.91C87.58,313.21,88.51,316.49,94.61,315.53Z"/><path class="cls-1" d="M153.34,266.61h19.6c.09,1.89.24,3.64.24,5.4,0,12.14.07,24.29,0,36.44,0,4.55.5,8.32,6.89,6.88.6,3.66,1.32,6.89,1.52,10.14.07,1-1.19,3-2,3.12-5.67.57-11.48,1.54-17.05.84-5.38-.68-9-5.08-9.08-10.53C153.13,301.65,153.34,284.38,153.34,266.61Z"/><path class="cls-1" d="M88.9,246.85c0,7-4.63,11.65-11.55,11.61-6.59,0-11-4.39-11.08-10.9-.08-6.95,4.53-11.82,11.32-12C84.2,235.44,88.86,240.08,88.9,246.85Z"/><path class="cls-1" d="M174.35,246.69c0,7.25-4.23,11.71-11.26,11.77-6.83.05-11.21-4.37-11.14-11.26s4.78-11.64,11.61-11.61C170.13,235.63,174.32,239.94,174.35,246.69Z"/></g></g></svg>